<svg width="57" height="47" viewBox="0 0 57 47" fill="none" xmlns="http://www.w3.org/2000/svg">
<path d="M26.192 31.7423L26.0211 32.0928L8.29053 20.5412L8.72452 19.6514L28.9318 22.4977L14.2348 8.35351L14.6688 7.4637L34.6877 14.3236L33.5961 16.5616L17.5889 11.0575L30.3083 23.3026L29.4798 25.0013L12.1622 22.6631L26.192 31.7423Z" fill="#181818"/>
<path d="M40.7879 14.9194C41.6188 15.212 42.4236 15.5156 43.2025 15.8302C43.9999 16.1524 44.8006 16.573 45.6047 17.092C46.4274 17.6185 47.1716 18.2859 47.8373 19.0941C48.529 19.8913 49.0255 20.7714 49.3267 21.7343C49.6539 22.6862 49.767 23.8212 49.6659 25.1393C49.5647 26.4574 49.177 27.9509 48.5027 29.6199C47.8284 31.2888 46.9434 32.6785 45.8477 33.7888C44.778 34.8882 43.6279 35.5991 42.3975 35.9217C40.0072 36.5522 37.5141 36.343 34.9179 35.2941C34.0093 34.927 33.0693 34.504 32.0979 34.0253L30.7071 33.4634L38.5626 14.0203L40.7879 14.9194ZM33.1057 34.1736C33.4802 34.368 33.9641 34.5851 34.5575 34.8249C35.1509 35.0646 35.5997 35.2352 35.9038 35.3365C36.208 35.4378 36.646 35.5285 37.2176 35.6085C37.7968 35.6699 38.3576 35.67 38.9 35.6087C39.4425 35.5475 40.0484 35.3824 40.7179 35.1136C41.4133 34.8338 42.0684 34.4405 42.6829 33.9338C44.0946 32.7354 45.295 30.9123 46.284 28.4646C46.9882 26.7215 47.3818 25.1333 47.4648 23.7C47.5552 22.2481 47.4459 21.1039 47.1369 20.2672C46.8463 19.438 46.3828 18.6899 45.7463 18.0229C45.1174 17.3373 44.5823 16.8731 44.1412 16.6301C43.7001 16.3872 43.1735 16.1421 42.5616 15.8949C41.9497 15.6476 41.345 15.4357 40.7477 15.2591L33.1057 34.1736Z" fill="#181818"/>
</svg>
